# xmcd CD database file
#
# Track frame offsets:
#	150
#	21567
#	48097
#	69567
#
# Disc length: 1279 seconds
#
# Revision: 0
# Processed by: cddbd v1.5.1PL0 Copyright (c) Steve Scherf et al.
# Submitted via: CDex 1.50beta8
#
DISCID=3004fd04
DTITLE=LINDBERG - 胸さわぎのAfterSchool
DYEAR=1993
DGENRE=Pop
TTITLE0=胸さわぎのAfterSchool
TTITLE1=Be My Valentine
TTITLE2=胸さわぎのAfterSchool（カラオケ）
TTITLE3=Be My Valentine（カラオケ）
EXTD=YEAR: 1993
EXTT0=
EXTT1=
EXTT2=
EXTT3=
PLAYORDER=
